<svg xmlns="http://www.w3.org/2000/svg" width="1005" height="600"><rect width="1005" height="600" x="0" y="0" fill="#FFFFFF" id="backgorund"/><g id="viz"><clipPath id="serieClipPath"><rect x="-50" y="-10" width="805" height="600"/></clipPath><g transform="translate(0,0)"><g transform="translate(50,10)" clip-path="url(#serieClipPath)"><g id="axis"><g transform="translate(0,570)" fill="none" font-size="10" font-family="sans-serif" text-anchor="middle"><path class="domain" stroke="currentColor" d="M0,6V0H735V6"/><g class="tick" opacity="1" transform="translate(0,0)"><line stroke="currentColor" y2="6"/><text fill="currentColor" y="9" dy="0.71em">Jan 03</text></g><g class="tick" opacity="1" transform="translate(56.53846153846154,0)"><line stroke="currentColor" y2="6"/><text fill="currentColor" y="9" dy="0.71em">Jan 10</text></g><g class="tick" opacity="1" transform="translate(113.07692307692308,0)"><line stroke="currentColor" y2="6"/><text fill="currentColor" y="9" dy="0.71em">Jan 17</text></g><g class="tick" opacity="1" transform="translate(169.6153846153846,0)"><line stroke="currentColor" y2="6"/><text fill="currentColor" y="9" dy="0.71em">Jan 24</text></g><g class="tick" opacity="1" transform="translate(226.15384615384616,0)"><line stroke="currentColor" y2="6"/><text fill="currentColor" y="9" dy="0.71em">Jan 31</text></g><g class="tick" opacity="1" transform="translate(282.69230769230774,0)"><line stroke="currentColor" y2="6"/><text fill="currentColor" y="9" dy="0.71em">Feb 07</text></g><g class="tick" opacity="1" transform="translate(339.2307692307692,0)"><line stroke="currentColor" y2="6"/><text fill="currentColor" y="9" dy="0.71em">Feb 14</text></g><g class="tick" opacity="1" transform="translate(395.7692307692308,0)"><line stroke="currentColor" y2="6"/><text fill="currentColor" y="9" dy="0.71em">Feb 21</text></g><g class="tick" opacity="1" transform="translate(452.3076923076923,0)"><line stroke="currentColor" y2="6"/><text fill="currentColor" y="9" dy="0.71em">Feb 28</text></g><g class="tick" opacity="1" transform="translate(508.8461538461538,0)"><line stroke="currentColor" y2="6"/><text fill="currentColor" y="9" dy="0.71em">Mar 06</text></g><g class="tick" opacity="1" transform="translate(565.3846153846155,0)"><line stroke="currentColor" y2="6"/><text fill="currentColor" y="9" dy="0.71em">Mar 13</text></g><g class="tick" opacity="1" transform="translate(621.9230769230769,0)"><line stroke="currentColor" y2="6"/><text fill="currentColor" y="9" dy="0.71em">Mar 20</text></g><g class="tick" opacity="1" transform="translate(678.4615384615385,0)"><line stroke="currentColor" y2="6"/><text fill="currentColor" y="9" dy="0.71em">Mar 27</text></g><g class="tick" opacity="1" transform="translate(735,0)"><line stroke="currentColor" y2="6"/><text fill="currentColor" y="9" dy="0.71em">Apr 03</text></g><text x="735" dy="-5" text-anchor="end" style="font-family: Arial, sans-serif; font-size: 12px; fill: rgb(123, 123, 123); font-weight: bold;">日期</text></g><g transform="translate(0,0)" fill="none" font-size="10" font-family="sans-serif" text-anchor="end"><path class="domain" stroke="currentColor" d="M0,570V0"/><g class="tick" opacity="1" transform="translate(0,570)"><line stroke="currentColor" x2="-6"/><text fill="currentColor" x="-9" dy="0.32em">440</text></g><g class="tick" opacity="1" transform="translate(0,518.1818181818181)"><line stroke="currentColor" x2="-6"/><text fill="currentColor" x="-9" dy="0.32em">450</text></g><g class="tick" opacity="1" transform="translate(0,466.3636363636363)"><line stroke="currentColor" x2="-6"/><text fill="currentColor" x="-9" dy="0.32em">460</text></g><g class="tick" opacity="1" transform="translate(0,414.54545454545456)"><line stroke="currentColor" x2="-6"/><text fill="currentColor" x="-9" dy="0.32em">470</text></g><g class="tick" opacity="1" transform="translate(0,362.72727272727275)"><line stroke="currentColor" x2="-6"/><text fill="currentColor" x="-9" dy="0.32em">480</text></g><g class="tick" opacity="1" transform="translate(0,310.9090909090909)"><line stroke="currentColor" x2="-6"/><text fill="currentColor" x="-9" dy="0.32em">490</text></g><g class="tick" opacity="1" transform="translate(0,259.0909090909091)"><line stroke="currentColor" x2="-6"/><text fill="currentColor" x="-9" dy="0.32em">500</text></g><g class="tick" opacity="1" transform="translate(0,207.27272727272728)"><line stroke="currentColor" x2="-6"/><text fill="currentColor" x="-9" dy="0.32em">510</text></g><g class="tick" opacity="1" transform="translate(0,155.45454545454544)"><line stroke="currentColor" x2="-6"/><text fill="currentColor" x="-9" dy="0.32em">520</text></g><g class="tick" opacity="1" transform="translate(0,103.63636363636361)"><line stroke="currentColor" x2="-6"/><text fill="currentColor" x="-9" dy="0.32em">530</text></g><g class="tick" opacity="1" transform="translate(0,51.818181818181834)"><line stroke="currentColor" x2="-6"/><text fill="currentColor" x="-9" dy="0.32em">540</text></g><g class="tick" opacity="1" transform="translate(0,0)"><line stroke="currentColor" x2="-6"/><text fill="currentColor" x="-9" dy="0.32em">550</text></g><text x="4" text-anchor="start" dominant-baseline="hanging" style="font-family: Arial, sans-serif; font-size: 12px; fill: rgb(123, 123, 123); font-weight: bold;">收盤價</text></g></g><g id="viz"><g><path d="M0,502.6363636363636L1.3461538461538465,505.6590909090908C2.692307692307693,508.6818181818182,5.384615384615386,514.7272727272726,8.076923076923078,509.9772727272727C10.769230769230772,505.2272727272727,13.461538461538465,489.6818181818182,16.153846153846157,481.90909090909093C18.84615384615385,474.1363636363637,21.538461538461537,474.1363636363637,26.923076923076923,454.70454545454544C32.30769230769231,435.27272727272725,40.38461538461538,396.4090909090908,45.76923076923077,372.6590909090908C51.15384615384615,348.9090909090908,53.84615384615385,340.27272727272725,56.53846153846155,337.25C59.23076923076923,334.22727272727275,61.923076923076934,336.8181818181818,64.61538461538463,336.3863636363637C67.30769230769232,335.9545454545455,70,332.5,72.6923076923077,319.11363636363643C75.38461538461539,305.72727272727275,78.07692307692308,282.40909090909093,83.46153846153847,266.4318181818182C88.84615384615385,250.45454545454547,96.92307692307692,241.81818181818184,102.3076923076923,239.22727272727272C107.6923076923077,236.63636363636363,110.3846153846154,240.0909090909091,129.23076923076925,207.27272727272725C148.07692307692307,174.4545454545454,183.07692307692307,105.36363636363633,201.9230769230769,88.95454545454542C220.76923076923075,72.54545454545452,223.46153846153845,108.8181818181818,226.15384615384616,120.04545454545452C228.84615384615384,131.27272727272725,231.53846153846155,117.45454545454542,234.23076923076925,101.90909090909089C236.9230769230769,86.36363636363636,239.6153846153846,69.0909090909091,242.3076923076923,58.72727272727273C245,48.363636363636374,247.6923076923077,44.90909090909093,253.0769230769231,57.00000000000001C258.4615384615385,69.0909090909091,266.53846153846155,96.7272727272727,271.92307692307696,113.13636363636363C277.3076923076923,129.54545454545453,280.00000000000006,134.72727272727275,282.69230769230774,122.63636363636367C285.3846153846154,110.54545454545456,288.0769230769231,81.1818181818182,290.7692307692308,66.50000000000001C293.4615384615385,51.818181818181834,296.1538461538462,51.818181818181834,298.84615384615387,47.50000000000001C301.5384615384616,43.18181818181819,304.2307692307693,34.54545454545453,309.61538461538464,33.681818181818166C315.00000000000006,32.81818181818179,323.0769230769231,39.72727272727271,328.4615384615385,39.727272727272705C333.84615384615387,39.72727272727271,336.53846153846155,32.81818181818179,339.2307692307692,46.636363636363626C341.9230769230769,60.45454545454544,344.6153846153846,95,347.3076923076923,109.68181818181819C350,124.36363636363637,352.6923076923077,119.18181818181817,355.3846153846154,125.2272727272727C358.0769230769231,131.27272727272725,360.7692307692308,148.54545454545453,366.1538461538462,158.04545454545453C371.5384615384615,167.54545454545453,379.6153846153846,169.27272727272728,385,171.00000000000003C390.3846153846154,172.72727272727275,393.0769230769231,174.45454545454547,395.7692307692308,183.0909090909091C398.4615384615385,191.72727272727272,401.1538461538462,207.27272727272725,403.8461538461538,205.5454545454545C406.5384615384616,203.81818181818178,409.2307692307692,184.81818181818178,411.9230769230769,181.36363636363635C414.6153846153846,177.9090909090909,417.3076923076923,190,428.0769230769231,189.13636363636363C438.8461538461538,188.27272727272725,457.6923076923077,174.45454545454547,468.4615384615385,170.13636363636365C479.2307692307692,165.81818181818184,481.9230769230769,171,487.3076923076923,169.27272727272728C492.6923076923076,167.54545454545453,500.7692307692307,158.9090909090909,506.1538461538462,152C511.5384615384616,145.0909090909091,514.2307692307693,139.9090909090909,516.923076923077,139.9090909090909C519.6153846153846,139.9090909090909,522.3076923076924,145.0909090909091,525,146.81818181818184C527.6923076923077,148.54545454545453,530.3846153846154,146.81818181818178,533.0769230769231,153.72727272727272C535.7692307692308,160.6363636363636,538.4615384615385,176.18181818181816,543.8461538461538,181.36363636363635C549.2307692307693,186.5454545454545,557.3076923076924,181.36363636363635,562.6923076923077,183.95454545454547C568.0769230769232,186.54545454545453,570.7692307692308,196.9090909090909,573.4615384615385,201.22727272727272C576.1538461538462,205.54545454545453,578.8461538461538,203.81818181818178,581.5384615384615,208.13636363636363C584.2307692307692,212.4545454545454,586.923076923077,222.81818181818178,589.6153846153846,216.77272727272725C592.3076923076924,210.72727272727272,595,188.27272727272725,600.3846153846154,182.22727272727272C605.7692307692308,176.18181818181816,613.8461538461538,186.54545454545453,619.2307692307692,187.4090909090909C624.6153846153846,188.27272727272728,627.3076923076923,179.63636363636365,630,161.50000000000003C632.6923076923077,143.36363636363637,635.3846153846154,115.72727272727275,638.0769230769231,97.59090909090911C640.7692307692308,79.45454545454545,643.4615384615385,70.81818181818183,646.1538461538461,65.63636363636364C648.8461538461538,60.45454545454546,651.5384615384615,58.72727272727273,656.9230769230769,64.77272727272727C662.3076923076923,70.81818181818181,670.3846153846154,84.63636363636363,675.7692307692307,96.72727272727273C681.1538461538462,108.81818181818183,683.8461538461538,119.18181818181819,686.5384615384615,120.04545454545456C689.2307692307692,120.90909090909092,691.923076923077,112.27272727272725,693.2692307692308,107.95454545454544L694.6153846153846,103.63636363636361" stroke="#1f77b4" fill="none"/><text font-family="sans-serif" font-size="10" class="labels" x="306.92307692307696" y="25.909090909090885" dx="0" dy="-4" text-anchor="middle"/></g></g></g><text y="4" x="4" style="font-family: Arial, sans-serif; font-size: 12px; fill: black; font-weight: bold; dominant-baseline: hanging;"/></g><g id="grid"><rect x="0" y="0" width="805" height="600" fill="none" stroke="#ccc"/></g></g><g id="legend" transform="translate(805,10)"><g transform="translate(5,0)"/></g></svg>